<svg xmlns="http://www.w3.org/2000/svg" xmlns:xlink="http://www.w3.org/1999/xlink" width="2000" zoomAndPan="magnify" viewBox="0 0 1500 1499.999933" height="2000" preserveAspectRatio="xMidYMid meet" version="1.0"><defs><g/><clipPath id="3c0281bf02"><rect x="0" width="1441" y="0" height="668"/></clipPath></defs><g transform="matrix(1, 0, 0, 1, 55, 229)"><g clip-path="url(#3c0281bf02)"><g fill="#ffffff" fill-opacity="1"><g transform="translate(0.727434, 504.19146)"><g><path d="M 92.03125 -8.609375 L 92.03125 0 L 17.234375 0 L 17.234375 -8.609375 C 25.390625 -8.609375 31.882812 -10.875 36.71875 -15.40625 C 41.550781 -19.945312 44.421875 -27.351562 45.328125 -37.625 L 55.765625 -321.4375 L 55.3125 -321.4375 C 55.613281 -321.738281 55.765625 -322.34375 55.765625 -323.25 C 55.765625 -332.914062 53.875 -340.46875 50.09375 -345.90625 C 46.3125 -351.351562 41.097656 -354.078125 34.453125 -354.078125 L 29.921875 -354.078125 L 29.921875 -362.6875 L 78.890625 -362.6875 L 218.96875 -32.640625 L 352.71875 -362.6875 L 403.9375 -362.6875 L 403.9375 -354.078125 C 396.082031 -354.078125 390.113281 -352.035156 386.03125 -347.953125 C 381.957031 -343.867188 379.617188 -336.992188 379.015625 -327.328125 L 391.703125 -41.25 C 392.304688 -29.769531 394.945312 -21.457031 399.625 -16.3125 C 404.3125 -11.175781 411.039062 -8.609375 419.8125 -8.609375 L 419.8125 0 L 338.65625 0 L 338.65625 -8.609375 L 343.1875 -8.609375 C 349.84375 -8.609375 354.984375 -11.328125 358.609375 -16.765625 C 362.234375 -22.210938 364.046875 -29.769531 364.046875 -39.4375 L 364.046875 -41.25 C 362.535156 -91.425781 360.796875 -141.375 358.828125 -191.09375 C 356.867188 -240.8125 354.984375 -290.90625 353.171875 -341.375 L 213.078125 2.71875 L 206.28125 2.71875 C 182.707031 -52.59375 159.054688 -107.523438 135.328125 -162.078125 C 111.597656 -216.628906 87.945312 -271.5625 64.375 -326.875 L 53.953125 -43.0625 C 54.554688 -32.488281 57.648438 -24.101562 63.234375 -17.90625 C 68.828125 -11.707031 76.3125 -8.609375 85.6875 -8.609375 Z M 92.03125 -8.609375 "/></g></g></g><g fill="#ffffff" fill-opacity="1"><g transform="translate(438.675142, 504.19146)"><g><path d="M 301.03125 -55.3125 C 298.007812 -40.195312 295.441406 -27.5 293.328125 -17.21875 C 291.210938 -6.945312 290.003906 -1.207031 289.703125 0 L 24.03125 0 L 24.03125 -8.609375 C 32.789062 -8.609375 39.515625 -11.175781 44.203125 -16.3125 C 48.890625 -21.457031 51.234375 -29.769531 51.234375 -41.25 L 51.234375 -321.4375 C 51.234375 -331.40625 49.113281 -339.335938 44.875 -345.234375 C 40.644531 -351.128906 35.054688 -354.078125 28.109375 -354.078125 L 24.03125 -354.078125 L 24.03125 -362.6875 L 286.515625 -362.6875 C 286.515625 -353.925781 286.816406 -344.632812 287.421875 -334.8125 C 288.035156 -324.988281 288.492188 -315.691406 288.796875 -306.921875 L 281.53125 -306.921875 L 278.359375 -314.625 C 272.316406 -327.320312 262.796875 -337.375 249.796875 -344.78125 C 236.804688 -352.1875 222.601562 -355.890625 207.1875 -355.890625 L 78.4375 -355.890625 L 78.4375 -218.515625 L 191.765625 -218.515625 C 205.367188 -218.515625 217.003906 -220.554688 226.671875 -224.640625 C 236.347656 -228.722656 242.394531 -234.238281 244.8125 -241.1875 L 246.625 -245.265625 L 253.875 -245.265625 L 253.875 -180.890625 L 246.625 -180.890625 L 244.8125 -185.421875 C 241.789062 -193.285156 235.519531 -199.632812 226 -204.46875 C 216.476562 -209.300781 205.066406 -211.71875 191.765625 -211.71875 L 78.4375 -211.71875 L 78.4375 -6.796875 L 211.265625 -6.796875 C 226.679688 -6.796875 241.414062 -10.5 255.46875 -17.90625 C 269.519531 -25.3125 280.628906 -35.363281 288.796875 -48.0625 L 294.234375 -55.3125 Z M 301.03125 -55.3125 "/></g></g></g><g fill="#ffffff" fill-opacity="1"><g transform="translate(756.028497, 504.19146)"><g><path d="M 279.71875 -362.6875 L 345.90625 -362.6875 L 345.90625 -354.078125 C 330.5 -354.078125 315.84375 -343.195312 301.9375 -321.4375 C 299.519531 -317.800781 297.554688 -314.695312 296.046875 -312.125 C 294.535156 -309.5625 292.566406 -306.238281 290.140625 -302.15625 C 287.722656 -298.082031 284.472656 -292.566406 280.390625 -285.609375 C 276.316406 -278.660156 270.648438 -268.914062 263.390625 -256.375 C 256.140625 -243.832031 246.769531 -227.890625 235.28125 -208.546875 C 223.800781 -189.203125 209.597656 -165.175781 192.671875 -136.46875 L 192.671875 -41.25 C 192.671875 -31.582031 194.785156 -23.722656 199.015625 -17.671875 C 203.253906 -11.628906 208.847656 -8.609375 215.796875 -8.609375 L 219.875 -8.609375 L 219.875 0 L 138.28125 0 L 138.28125 -8.609375 L 142.359375 -8.609375 C 149.304688 -8.609375 154.894531 -11.628906 159.125 -17.671875 C 163.351562 -23.722656 165.46875 -31.582031 165.46875 -41.25 L 165.46875 -126.03125 L 55.3125 -321.4375 C 48.351562 -332.007812 41.703125 -340.09375 35.359375 -345.6875 C 29.015625 -351.28125 22.367188 -354.078125 15.421875 -354.078125 L 15.421875 -362.6875 L 96.109375 -362.6875 L 96.109375 -354.078125 L 91.578125 -354.078125 C 84.328125 -354.078125 80.703125 -350.75 80.703125 -344.09375 C 80.703125 -338.351562 83.117188 -331.554688 87.953125 -323.703125 L 189.953125 -146.890625 L 289.25 -315.078125 C 295.59375 -325.960938 298.765625 -334.726562 298.765625 -341.375 C 298.765625 -349.84375 294.226562 -354.078125 285.15625 -354.078125 L 281.53125 -354.078125 C 280.320312 -354.078125 279.71875 -355.585938 279.71875 -358.609375 Z M 279.71875 -362.6875 "/></g></g></g><g fill="#ffffff" fill-opacity="1"><g transform="translate(1119.171473, 504.19146)"><g><path d="M 301.03125 -55.3125 C 298.007812 -40.195312 295.441406 -27.5 293.328125 -17.21875 C 291.210938 -6.945312 290.003906 -1.207031 289.703125 0 L 24.03125 0 L 24.03125 -8.609375 C 32.789062 -8.609375 39.515625 -11.175781 44.203125 -16.3125 C 48.890625 -21.457031 51.234375 -29.769531 51.234375 -41.25 L 51.234375 -321.4375 C 51.234375 -331.40625 49.113281 -339.335938 44.875 -345.234375 C 40.644531 -351.128906 35.054688 -354.078125 28.109375 -354.078125 L 24.03125 -354.078125 L 24.03125 -362.6875 L 286.515625 -362.6875 C 286.515625 -353.925781 286.816406 -344.632812 287.421875 -334.8125 C 288.035156 -324.988281 288.492188 -315.691406 288.796875 -306.921875 L 281.53125 -306.921875 L 278.359375 -314.625 C 272.316406 -327.320312 262.796875 -337.375 249.796875 -344.78125 C 236.804688 -352.1875 222.601562 -355.890625 207.1875 -355.890625 L 78.4375 -355.890625 L 78.4375 -218.515625 L 191.765625 -218.515625 C 205.367188 -218.515625 217.003906 -220.554688 226.671875 -224.640625 C 236.347656 -228.722656 242.394531 -234.238281 244.8125 -241.1875 L 246.625 -245.265625 L 253.875 -245.265625 L 253.875 -180.890625 L 246.625 -180.890625 L 244.8125 -185.421875 C 241.789062 -193.285156 235.519531 -199.632812 226 -204.46875 C 216.476562 -209.300781 205.066406 -211.71875 191.765625 -211.71875 L 78.4375 -211.71875 L 78.4375 -6.796875 L 211.265625 -6.796875 C 226.679688 -6.796875 241.414062 -10.5 255.46875 -17.90625 C 269.519531 -25.3125 280.628906 -35.363281 288.796875 -48.0625 L 294.234375 -55.3125 Z M 301.03125 -55.3125 "/></g></g></g></g></g></svg>
