<?xml version="1.0" encoding="UTF-8"?>
<svg id="Layer_1" data-name="Layer 1" xmlns="http://www.w3.org/2000/svg" version="1.1" viewBox="0 0 971.1 131.7">
  <defs>
    <style>
      .cls-1 {
        fill: #47a9d0;
      }

      .cls-1, .cls-2, .cls-3, .cls-4 {
        stroke-width: 0px;
      }

      .cls-2 {
        fill: #89c5e0;
      }

      .cls-3 {
        fill: #0080bc;
      }

      .cls-4 {
        fill: #fff;
      }
    </style>
  </defs>
  <g>
    <path class="cls-4" d="M16.2,54.9c0-24.3,0-28.8-.3-34-.3-5.5-1.6-8-6.9-9.1-1.3-.3-4-.5-6.2-.5s-2.7-.3-2.7-1.4,1.1-1.4,3.5-1.4c8.5,0,18.6.5,21.9.5,5.4,0,17.6-.5,22.6-.5,10.1,0,20.8,1,29.5,6.9,4.5,3,10.9,11.2,10.9,21.9s-5,22.7-21.1,35.9c14.2,17.9,25.3,32.2,34.8,42.1,9,9.3,15.5,10.4,17.9,10.9,1.8.3,3.2.5,4.5.5s1.9.5,1.9,1.3c0,1.3-1.1,1.6-3,1.6h-15.2c-9,0-13-.8-17.1-3-6.9-3.7-13-11.2-21.9-23.5-6.4-8.8-13.8-19.7-15.9-22.1-.8-1-1.8-1.1-2.9-1.1l-13.9-.3c-.8,0-1.3.3-1.3,1.3v2.2c0,14.9,0,27.6.8,34.3.5,4.6,1.4,8.2,6.2,8.8,2.4.3,5.9.6,7.8.6s1.9.5,1.9,1.3-1.1,1.6-3.2,1.6c-9.3,0-21.1-.5-23.5-.5s-13.1.5-19.5.5-3.2-.5-3.2-1.6.6-1.3,2.6-1.3,4.3-.3,5.8-.6c3.2-.6,4-4.2,4.6-8.8.8-6.7.8-19.4.8-34.1v-28.2h0ZM35.1,67.5c0,1.8.3,2.4,1.4,2.9,3.4,1.1,8.2,1.6,12.2,1.6,6.4,0,8.5-.6,11.4-2.7,4.8-3.5,9.4-10.9,9.4-24,0-22.7-15.1-29.3-24.5-29.3s-6.9.2-8.5.6c-1.1.3-1.4,1-1.4,2.2v48.7Z"/>
    <path class="cls-4" d="M137.1,54.9c0-24.3,0-28.8-.3-34-.3-5.5-1.9-8.2-5.4-9-1.8-.5-3.8-.6-5.8-.6s-2.6-.3-2.6-1.6,1.3-1.3,3.8-1.3c6.1,0,16.2.5,20.8.5s13.4-.5,19.5-.5,3.4.3,3.4,1.3-1,1.6-2.6,1.6-2.9.2-4.8.5c-4.3.8-5.6,3.5-5.9,9.1-.3,5.1-.3,9.6-.3,34v28.2c0,15.5,0,28.2.6,35.1.5,4.3,1.6,7.2,6.4,7.9,2.2.3,5.8.6,8.2.6s2.6.5,2.6,1.3-1.3,1.6-3,1.6c-10.6,0-20.7-.5-25-.5s-13.8.5-20.2.5-3.2-.5-3.2-1.6.6-1.3,2.6-1.3,4.3-.3,5.8-.6c3.2-.6,4.2-3.4,4.6-8,.8-6.7.8-19.4.8-34.9v-28.2h0Z"/>
    <path class="cls-4" d="M203.4,24.1c-3.7-8.8-6.4-10.6-12.2-12.2-2.4-.6-5-.6-6.2-.6s-1.9-.5-1.9-1.4,1.8-1.4,4.2-1.4c8.5,0,17.6.5,23.2.5s11.7-.5,19.7-.5,3.7.3,3.7,1.4-1,1.4-2.4,1.4c-2.6,0-5,.2-6.2,1.1-1.1.8-1.6,1.9-1.6,3.4,0,2.1,1.4,6.6,3.7,12.3l27.5,72.7h.6c6.9-17.6,27.7-69.2,31.5-79.8.8-2.1,1.4-4.5,1.4-5.9s-.6-2.6-2.1-3c-1.9-.6-4.3-.8-6.4-.8s-2.7-.2-2.7-1.3,1.4-1.6,4.5-1.6c8,0,14.7.5,16.8.5s10.2-.5,15-.5,3.4.3,3.4,1.4-1,1.4-2.6,1.4-5,0-7.9,1.9c-2.1,1.4-4.5,4.2-8.8,14.4-6.2,15.1-10.6,23.7-19.2,43.4-10.2,23.4-17.8,40.8-21.3,48.8-4.2,9.3-5.1,11.9-7.4,11.9s-3-2.2-6.1-9.8l-40.4-97.8h0Z"/>
    <path class="cls-4" d="M326.1,54.9c0-24.3,0-28.8-.3-34-.3-5.5-1.6-8-6.9-9.1-1.3-.3-4-.5-6.2-.5s-2.7-.3-2.7-1.4,1.1-1.4,3.5-1.4c4.3,0,9,.2,13,.2,4.2.2,7.9.3,10.1.3,5.1,0,37,0,40-.2,3-.3,5.6-.6,6.9-1,.8-.2,1.8-.6,2.6-.6s1,.6,1,1.4-.8,3-1.3,10.4c-.2,1.6-.5,8.6-.8,10.6-.2.8-.5,1.8-1.6,1.8s-1.4-.8-1.4-2.2-.2-3.8-1-5.8c-1.1-2.9-2.7-4.8-10.7-5.8-2.7-.3-19.5-.6-22.7-.6s-1.1.5-1.1,1.6v40.5c0,1.1.2,1.8,1.1,1.8,3.5,0,21.9,0,25.6-.3,3.8-.3,6.2-.8,7.7-2.4,1.1-1.3,1.8-2.1,2.6-2.1s1.1.3,1.1,1.3-.6,3.5-1.3,11.7c-.2,3.2-.6,9.6-.6,10.7s0,3-1.4,3-1.4-.6-1.4-1.4c-.2-1.6-.2-3.7-.6-5.8-.8-3.2-3-5.6-9-6.2-3-.3-18.9-.5-22.7-.5s-1,.6-1,1.6v12.7c0,5.4-.2,20.2,0,24.8.3,11.1,2.9,13.4,19.2,13.4s10.9,0,15-1.9c4.2-1.9,6.1-5.3,7.2-11.9.3-1.8.6-2.4,1.8-2.4s1.3,1.3,1.3,2.9c0,3.7-1.3,14.6-2.1,17.8-1.1,4.2-2.6,4.2-8.6,4.2-12,0-20.8-.3-27.7-.5-6.9-.3-11.9-.5-16.7-.5s-5.3,0-9.1.2c-3.7,0-7.9.3-11,.3s-3.2-.5-3.2-1.6.6-1.3,2.6-1.3,4.3-.3,5.8-.6c3.2-.6,4-4.2,4.6-8.8.8-6.7.8-19.4.8-34.1v-28.2h0Z"/>
    <path class="cls-4" d="M436.5,9.1c.5-2.7,1.4-4.2,2.7-4.2s2.2.8,4.3,5l43.7,90.3,43.6-91.4c1.3-2.6,2.1-3.8,3.5-3.8s2.4,1.6,2.9,5l14.6,99c1.4,10.1,3,14.7,7.8,16.2,4.6,1.4,7.8,1.6,9.9,1.6s2.6.2,2.6,1.1-1.9,1.8-4.2,1.8c-4,0-26.1-.5-32.5-1-3.7-.3-4.6-.8-4.6-1.8s.6-1.3,1.8-1.8c1-.3,1.4-2.4.8-6.9l-9.6-70.5h-.6l-34.9,72.7c-3.7,7.5-4.5,9-5.9,9s-3-3.2-5.6-8c-3.8-7.4-16.5-31.9-18.4-36.3-1.4-3.4-11-23.5-16.7-35.5h-.6l-8.3,63.7c-.3,2.9-.5,5-.5,7.5s2.1,4.5,4.8,5.1c2.9.6,5.1.8,6.7.8s2.4.3,2.4,1.1c0,1.4-1.4,1.8-3.8,1.8-6.7,0-13.9-.5-16.8-.5s-10.7.5-15.9.5-2.9-.3-2.9-1.8,1-1.1,2.6-1.1,2.4,0,4.8-.5c4.5-1,5.8-7.2,6.6-12.6l15.9-104.4h0Z"/>
    <path class="cls-4" d="M741.3,107.7c.3,12.5,2.4,16.7,5.6,17.8,2.7,1,5.8,1.1,8.3,1.1s2.7.3,2.7,1.3-1.4,1.6-3.7,1.6c-10.4,0-16.8-.5-19.9-.5s-9,.5-17.3.5-3.5-.2-3.5-1.6,1-1.3,2.6-1.3,5-.2,7.2-.8c4.2-1.3,4.8-5.9,5-19.9l1.4-94.8c0-3.2.5-5.4,2.1-5.4s3.2,2.1,5.9,5c1.9,2.1,26.3,28.2,49.7,51.4,10.9,10.9,32.5,34,35.2,36.5h.8l-1.6-71.9c-.2-9.8-1.6-12.8-5.4-14.4-2.4-1-6.2-1-8.5-1s-2.6-.5-2.6-1.4,1.8-1.4,4.2-1.4c8.3,0,16,.5,19.4.5s7.8-.5,15.7-.5,3.7.2,3.7,1.4-1,1.4-2.9,1.4-2.9,0-4.8.5c-4.5,1.3-5.8,4.7-5.9,13.6l-1.8,101.1c0,3.5-.6,5-2.1,5s-3.7-1.8-5.5-3.5c-10.1-9.6-30.6-30.6-47.2-47.1-17.5-17.3-35.2-37.3-38.1-40.4h-.5l1.8,67.3h0Z"/>
    <path class="cls-4" d="M908.1,17.4l-23.9.6c-9.3.3-13.1,1.1-15.5,4.6-1.6,2.4-2.4,4.3-2.7,5.6s-.8,1.9-1.8,1.9-1.4-.8-1.4-2.6c0-2.6,3-17.1,3.4-18.4.5-2.1,1-3,1.9-3s2.9,1.6,6.9,1.9c4.6.5,10.7.8,16,.8h63.4c5.1,0,8.7-.5,11.1-.8,2.4-.5,3.7-.8,4.3-.8,1.1,0,1.3,1,1.3,3.4s-.5,14.4-.5,18.6c-.2,1.6-.5,2.6-1.4,2.6s-1.6-.8-1.8-3.2l-.2-1.8c-.3-4.2-4.6-8.6-18.9-9l-20.2-.5v65.7c0,14.7,0,27.4.8,34.3.5,4.5,1.4,8,6.2,8.6,2.2.3,5.8.6,8.2.6s2.6.5,2.6,1.3-1.3,1.6-3,1.6c-10.6,0-20.7-.5-25.1-.5s-13.8.5-20.2.5-3.2-.5-3.2-1.6.6-1.3,2.6-1.3,4.3-.3,5.8-.6c3.2-.6,4.2-4.2,4.6-8.8.8-6.7.8-19.4.8-34.1V17.4h0Z"/>
  </g>
  <path class="cls-1" d="M660.8,22.4c10.1,5.3,18.1,14,22.4,24.7l15.6-6.8c-5.9-14.4-16.8-26.2-30.6-33.2l-7.4,15.4h0Z"/>
  <path class="cls-4" d="M645.1,112.5c-2.1.3-4.2.4-6.4.4-26.5,0-48-21.5-48-48s5-24.9,14.1-33.9c8.3-8.3,19.2-13.2,30.8-14V0c-34.5,1.6-61.9,30.1-61.9,64.9s29.1,65,65,65,6.5-.2,9.7-.7l-3.3-16.7h0Z"/>
  <path class="cls-3" d="M685.6,54.7c.7,3.3,1.1,6.8,1.1,10.3,0,12.8-5,24.9-14.1,33.9-5.9,5.9-13.1,10.1-21,12.3l3.8,16.6c27.8-7.4,48.2-32.7,48.2-62.8s-.7-11-2-16.2l-16.1,5.9h0Z"/>
  <path class="cls-2" d="M642.4,0l-.9,17c4.3.2,8.5,1.1,12.5,2.4l6.2-15.9c-5.6-2-11.6-3.2-17.8-3.5Z"/>
</svg>