<svg xmlns="http://www.w3.org/2000/svg" width="14.37" height="18.475" viewBox="0 0 14.37 18.475">
  <g id="np_account_4407159_000000" transform="translate(-20.832 -12.5)">
    <path id="Path_1" data-name="Path 1" d="M37.438,20.711a4.1,4.1,0,1,1,2.9-1.2A4.1,4.1,0,0,1,37.438,20.711Zm0-6.158a2.053,2.053,0,1,0,1.451.6A2.053,2.053,0,0,0,37.438,14.553Z" transform="translate(-9.421 0)" fill="#fff"/>
    <path id="Path_2" data-name="Path 2" d="M34.175,59.237a1.027,1.027,0,0,1-1.027-1.027V55.131a3.079,3.079,0,0,0-3.079-3.079h-4.1a3.079,3.079,0,0,0-3.079,3.079V58.21a1.027,1.027,0,1,1-2.053,0V55.131A5.138,5.138,0,0,1,25.965,50h4.1A5.138,5.138,0,0,1,35.2,55.131V58.21a1.027,1.027,0,0,1-1.027,1.027Z" transform="translate(0 -28.262)" fill="#fff"/>
  </g>
</svg>
